<svg id="icon-mng-strgy-color" xmlns="http://www.w3.org/2000/svg" width="12.066" height="12.066" viewBox="0 0 12.066 12.066">
  <path id="Vector" d="M12.331,6.5H8.926a.426.426,0,0,0-.426.426v5.108a.426.426,0,0,0,.426.426h3.405a.426.426,0,0,0,.426-.426V6.926A.426.426,0,0,0,12.331,6.5Z" transform="translate(-1.19 -0.892)" fill="none" stroke="#4dadff" stroke-linecap="round" stroke-linejoin="round" stroke-width="1"/>
  <path id="Vector_2" d="M12.331.5H8.926A.426.426,0,0,0,8.5.926V2.637a.426.426,0,0,0,.426.426h3.405a.426.426,0,0,0,.426-.426V.926A.426.426,0,0,0,12.331.5Z" transform="translate(-1.19)" fill="none" stroke="#4dadff" stroke-linecap="round" stroke-linejoin="round" stroke-width="1"/>
  <path id="Vector_3" d="M4.331.5H.926A.426.426,0,0,0,.5.926V6.033a.426.426,0,0,0,.426.426H4.331a.426.426,0,0,0,.426-.426V.926A.426.426,0,0,0,4.331.5Z" fill="none" stroke="#4dadff" stroke-linecap="round" stroke-linejoin="round" stroke-width="1"/>
  <path id="Vector_4" d="M4.331,10.49H.926a.426.426,0,0,0-.426.426v1.711a.426.426,0,0,0,.426.426H4.331a.426.426,0,0,0,.426-.426V10.916A.426.426,0,0,0,4.331,10.49Z" transform="translate(0 -1.486)" fill="none" stroke="#4dadff" stroke-linecap="round" stroke-linejoin="round" stroke-width="1"/>
</svg>
